<?xml version="1.0" encoding="UTF-8" standalone="no"?>
<!DOCTYPE svg PUBLIC "-//W3C//DTD SVG 1.1//EN"
 "http://www.w3.org/Graphics/SVG/1.1/DTD/svg11.dtd">
<!-- Generated by graphviz version 2.43.0 (0)
 -->
<!-- Title: pastafarianism Pages: 1 -->
<svg width="781pt" height="332pt"
 viewBox="0.00 0.00 781.39 332.00" xmlns="http://www.w3.org/2000/svg" xmlns:xlink="http://www.w3.org/1999/xlink">
<g id="graph0" class="graph" transform="scale(1 1) rotate(0) translate(4 328)">
<title>pastafarianism</title>
<polygon fill="white" stroke="transparent" points="-4,4 -4,-328 777.39,-328 777.39,4 -4,4"/>
<!-- root_selector -->
<g id="node1" class="node">
<title>root_selector</title>
<polygon fill="orange" stroke="black" points="267.69,-324 176.69,-324 176.69,-288 267.69,-288 267.69,-324"/>
<text text-anchor="middle" x="222.19" y="-303.8" font-family="Times,serif" font-size="9.00">Ⓜ root_selector</text>
</g>
<!-- move_branch -->
<g id="node2" class="node">
<title>move_branch</title>
<polygon fill="orange" stroke="black" points="206.19,-252 114.19,-252 114.19,-216 206.19,-216 206.19,-252"/>
<text text-anchor="middle" x="160.19" y="-231.8" font-family="Times,serif" font-size="9.00">Ⓜ move_branch</text>
</g>
<!-- root_selector&#45;&gt;move_branch -->
<g id="edge1" class="edge">
<title>root_selector&#45;&gt;move_branch</title>
<path fill="none" stroke="black" d="M206.86,-287.7C199.43,-279.3 190.36,-269.07 182.21,-259.86"/>
<polygon fill="black" stroke="black" points="184.59,-257.27 175.34,-252.1 179.35,-261.91 184.59,-257.27"/>
</g>
<!-- do_work_trunk -->
<g id="node5" class="node">
<title>do_work_trunk</title>
<polygon fill="orange" stroke="black" points="397.69,-252 298.69,-252 298.69,-216 397.69,-216 397.69,-252"/>
<text text-anchor="middle" x="348.19" y="-231.8" font-family="Times,serif" font-size="9.00">Ⓜ do_work_trunk</text>
</g>
<!-- root_selector&#45;&gt;do_work_trunk -->
<g id="edge4" class="edge">
<title>root_selector&#45;&gt;do_work_trunk</title>
<path fill="none" stroke="black" d="M253.01,-287.88C269.64,-278.64 290.35,-267.13 308.21,-257.21"/>
<polygon fill="black" stroke="black" points="310.2,-260.11 317.25,-252.19 306.81,-253.99 310.2,-260.11"/>
</g>
<!-- move_to_stow -->
<g id="node3" class="node">
<title>move_to_stow</title>
<ellipse fill="gray" stroke="black" cx="46.19" cy="-162" rx="46.38" ry="18"/>
<text text-anchor="middle" x="46.19" y="-159.8" font-family="Times,serif" font-size="9.00">move_to_stow</text>
</g>
<!-- move_branch&#45;&gt;move_to_stow -->
<g id="edge2" class="edge">
<title>move_branch&#45;&gt;move_to_stow</title>
<path fill="none" stroke="black" d="M132.3,-215.88C116.17,-205.97 95.79,-193.46 78.91,-183.09"/>
<polygon fill="black" stroke="black" points="80.29,-179.83 69.94,-177.58 76.63,-185.8 80.29,-179.83"/>
</g>
<!-- move_to_homw -->
<g id="node4" class="node">
<title>move_to_homw</title>
<ellipse fill="gray" stroke="black" cx="160.19" cy="-162" rx="49.8" ry="18"/>
<text text-anchor="middle" x="160.19" y="-159.8" font-family="Times,serif" font-size="9.00">move_to_homw</text>
</g>
<!-- move_branch&#45;&gt;move_to_homw -->
<g id="edge3" class="edge">
<title>move_branch&#45;&gt;move_to_homw</title>
<path fill="none" stroke="black" d="M160.19,-215.7C160.19,-207.98 160.19,-198.71 160.19,-190.11"/>
<polygon fill="black" stroke="black" points="163.69,-190.1 160.19,-180.1 156.69,-190.1 163.69,-190.1"/>
</g>
<!-- check_task_exists -->
<g id="node6" class="node">
<title>check_task_exists</title>
<ellipse fill="gray" stroke="black" cx="284.19" cy="-162" rx="56.66" ry="18"/>
<text text-anchor="middle" x="284.19" y="-159.8" font-family="Times,serif" font-size="9.00">check_task_exists</text>
</g>
<!-- do_work_trunk&#45;&gt;check_task_exists -->
<g id="edge5" class="edge">
<title>do_work_trunk&#45;&gt;check_task_exists</title>
<path fill="none" stroke="black" d="M332.37,-215.7C324.5,-207.09 314.87,-196.55 306.28,-187.17"/>
<polygon fill="black" stroke="black" points="308.72,-184.64 299.39,-179.62 303.55,-189.36 308.72,-184.64"/>
</g>
<!-- check_task_state -->
<g id="node7" class="node">
<title>check_task_state</title>
<ellipse fill="gray" stroke="black" cx="413.19" cy="-162" rx="54.04" ry="18"/>
<text text-anchor="middle" x="413.19" y="-159.8" font-family="Times,serif" font-size="9.00">check_task_state</text>
</g>
<!-- do_work_trunk&#45;&gt;check_task_state -->
<g id="edge6" class="edge">
<title>do_work_trunk&#45;&gt;check_task_state</title>
<path fill="none" stroke="black" d="M364.26,-215.7C372.24,-207.09 382.03,-196.55 390.75,-187.17"/>
<polygon fill="black" stroke="black" points="393.51,-189.33 397.75,-179.62 388.38,-184.57 393.51,-189.33"/>
</g>
<!-- cancellable_do_tasks_branch -->
<g id="node8" class="node">
<title>cancellable_do_tasks_branch</title>
<polygon fill="orange" stroke="black" points="635.19,-180 485.19,-180 485.19,-144 635.19,-144 635.19,-180"/>
<text text-anchor="middle" x="560.19" y="-159.8" font-family="Times,serif" font-size="9.00">cancellable_do_tasks_branch</text>
</g>
<!-- do_work_trunk&#45;&gt;cancellable_do_tasks_branch -->
<g id="edge7" class="edge">
<title>do_work_trunk&#45;&gt;cancellable_do_tasks_branch</title>
<path fill="none" stroke="black" d="M397.89,-216.59C428.06,-206.63 466.8,-193.84 498.86,-183.25"/>
<polygon fill="black" stroke="black" points="500.18,-186.5 508.58,-180.04 497.99,-179.85 500.18,-186.5"/>
</g>
<!-- handle_cancel_task -->
<g id="node9" class="node">
<title>handle_cancel_task</title>
<ellipse fill="gray" stroke="black" cx="474.19" cy="-90" rx="61.4" ry="18"/>
<text text-anchor="middle" x="474.19" y="-87.8" font-family="Times,serif" font-size="9.00">handle_cancel_task</text>
</g>
<!-- cancellable_do_tasks_branch&#45;&gt;handle_cancel_task -->
<g id="edge8" class="edge">
<title>cancellable_do_tasks_branch&#45;&gt;handle_cancel_task</title>
<path fill="none" stroke="black" d="M538.93,-143.7C527.78,-134.62 513.97,-123.38 501.98,-113.62"/>
<polygon fill="black" stroke="black" points="503.99,-110.74 494.02,-107.14 499.57,-116.17 503.99,-110.74"/>
</g>
<!-- do_tasks_selector_branch -->
<g id="node10" class="node">
<title>do_tasks_selector_branch</title>
<polygon fill="cyan" stroke="black" points="739.41,-82.54 739.41,-97.46 684.8,-108 607.57,-108 552.96,-97.46 552.96,-82.54 607.57,-72 684.8,-72 739.41,-82.54"/>
<text text-anchor="middle" x="646.19" y="-87.8" font-family="Times,serif" font-size="9.00">Ⓜ do_tasks_selector_branch</text>
</g>
<!-- cancellable_do_tasks_branch&#45;&gt;do_tasks_selector_branch -->
<g id="edge9" class="edge">
<title>cancellable_do_tasks_branch&#45;&gt;do_tasks_selector_branch</title>
<path fill="none" stroke="black" d="M581.45,-143.7C592.28,-134.88 605.61,-124.03 617.35,-114.47"/>
<polygon fill="black" stroke="black" points="619.63,-117.13 625.17,-108.1 615.21,-111.7 619.63,-117.13"/>
</g>
<!-- print_behaviour -->
<g id="node11" class="node">
<title>print_behaviour</title>
<ellipse fill="gray" stroke="black" cx="580.19" cy="-18" rx="52.58" ry="18"/>
<text text-anchor="middle" x="580.19" y="-15.8" font-family="Times,serif" font-size="9.00">print_behaviour</text>
</g>
<!-- do_tasks_selector_branch&#45;&gt;print_behaviour -->
<g id="edge10" class="edge">
<title>do_tasks_selector_branch&#45;&gt;print_behaviour</title>
<path fill="none" stroke="black" d="M629.87,-71.7C621.76,-63.09 611.82,-52.55 602.97,-43.17"/>
<polygon fill="black" stroke="black" points="605.27,-40.5 595.86,-35.62 600.17,-45.3 605.27,-40.5"/>
</g>
<!-- handle_task_failure -->
<g id="node12" class="node">
<title>handle_task_failure</title>
<ellipse fill="gray" stroke="black" cx="712.19" cy="-18" rx="61.4" ry="18"/>
<text text-anchor="middle" x="712.19" y="-15.8" font-family="Times,serif" font-size="9.00">handle_task_failure</text>
</g>
<!-- do_tasks_selector_branch&#45;&gt;handle_task_failure -->
<g id="edge11" class="edge">
<title>do_tasks_selector_branch&#45;&gt;handle_task_failure</title>
<path fill="none" stroke="black" d="M662.5,-71.7C670.61,-63.09 680.55,-52.55 689.4,-43.17"/>
<polygon fill="black" stroke="black" points="692.2,-45.3 696.52,-35.62 687.11,-40.5 692.2,-45.3"/>
</g>
</g>
</svg>
