<?xml version="1.0" encoding="UTF-8" standalone="no"?>
<!DOCTYPE svg PUBLIC "-//W3C//DTD SVG 1.1//EN"
 "http://www.w3.org/Graphics/SVG/1.1/DTD/svg11.dtd">
<!-- Generated by graphviz version 2.43.0 (0)
 -->
<!-- Title: pastafarianism Pages: 1 -->
<svg width="641pt" height="332pt"
 viewBox="0.00 0.00 640.84 332.00" xmlns="http://www.w3.org/2000/svg" xmlns:xlink="http://www.w3.org/1999/xlink">
<g id="graph0" class="graph" transform="scale(1 1) rotate(0) translate(4 328)">
<title>pastafarianism</title>
<polygon fill="white" stroke="transparent" points="-4,4 -4,-328 636.84,-328 636.84,4 -4,4"/>
<!-- root_selector -->
<g id="node1" class="node">
<title>root_selector</title>
<polygon fill="orange" stroke="black" points="199.14,-324 108.14,-324 108.14,-288 199.14,-288 199.14,-324"/>
<text text-anchor="middle" x="153.64" y="-303.8" font-family="Times,serif" font-size="9.00">Ⓜ root_selector</text>
</g>
<!-- move_branch -->
<g id="node2" class="node">
<title>move_branch</title>
<polygon fill="orange" stroke="black" points="142.64,-252 50.64,-252 50.64,-216 142.64,-216 142.64,-252"/>
<text text-anchor="middle" x="96.64" y="-231.8" font-family="Times,serif" font-size="9.00">Ⓜ move_branch</text>
</g>
<!-- root_selector&#45;&gt;move_branch -->
<g id="edge1" class="edge">
<title>root_selector&#45;&gt;move_branch</title>
<path fill="none" stroke="black" d="M139.55,-287.7C132.72,-279.3 124.38,-269.07 116.89,-259.86"/>
<polygon fill="black" stroke="black" points="119.6,-257.65 110.57,-252.1 114.17,-262.07 119.6,-257.65"/>
</g>
<!-- do_work_trunk -->
<g id="node4" class="node">
<title>do_work_trunk</title>
<polygon fill="orange" stroke="black" points="291.14,-252 192.14,-252 192.14,-216 291.14,-216 291.14,-252"/>
<text text-anchor="middle" x="241.64" y="-231.8" font-family="Times,serif" font-size="9.00">Ⓜ do_work_trunk</text>
</g>
<!-- root_selector&#45;&gt;do_work_trunk -->
<g id="edge3" class="edge">
<title>root_selector&#45;&gt;do_work_trunk</title>
<path fill="none" stroke="black" d="M175.39,-287.7C186.48,-278.88 200.12,-268.03 212.13,-258.47"/>
<polygon fill="black" stroke="black" points="214.49,-261.07 220.14,-252.1 210.13,-255.59 214.49,-261.07"/>
</g>
<!-- move_xyz -->
<g id="node3" class="node">
<title>move_xyz</title>
<ellipse fill="gray" stroke="black" cx="34.64" cy="-162" rx="34.78" ry="18"/>
<text text-anchor="middle" x="34.64" y="-159.8" font-family="Times,serif" font-size="9.00">move_xyz</text>
</g>
<!-- move_branch&#45;&gt;move_xyz -->
<g id="edge2" class="edge">
<title>move_branch&#45;&gt;move_xyz</title>
<path fill="none" stroke="black" d="M81.32,-215.7C73.47,-206.84 63.81,-195.93 55.32,-186.34"/>
<polygon fill="black" stroke="black" points="57.77,-183.84 48.52,-178.67 52.53,-188.48 57.77,-183.84"/>
</g>
<!-- check_task_exists -->
<g id="node5" class="node">
<title>check_task_exists</title>
<ellipse fill="gray" stroke="black" cx="143.64" cy="-162" rx="56.66" ry="18"/>
<text text-anchor="middle" x="143.64" y="-159.8" font-family="Times,serif" font-size="9.00">check_task_exists</text>
</g>
<!-- do_work_trunk&#45;&gt;check_task_exists -->
<g id="edge4" class="edge">
<title>do_work_trunk&#45;&gt;check_task_exists</title>
<path fill="none" stroke="black" d="M217.67,-215.88C204.53,-206.49 188.11,-194.76 174.07,-184.74"/>
<polygon fill="black" stroke="black" points="175.86,-181.71 165.69,-178.75 171.79,-187.41 175.86,-181.71"/>
</g>
<!-- check_task_state -->
<g id="node6" class="node">
<title>check_task_state</title>
<ellipse fill="gray" stroke="black" cx="272.64" cy="-162" rx="54.04" ry="18"/>
<text text-anchor="middle" x="272.64" y="-159.8" font-family="Times,serif" font-size="9.00">check_task_state</text>
</g>
<!-- do_work_trunk&#45;&gt;check_task_state -->
<g id="edge5" class="edge">
<title>do_work_trunk&#45;&gt;check_task_state</title>
<path fill="none" stroke="black" d="M249.3,-215.7C252.83,-207.73 257.1,-198.1 261.01,-189.26"/>
<polygon fill="black" stroke="black" points="264.22,-190.67 265.07,-180.1 257.82,-187.83 264.22,-190.67"/>
</g>
<!-- cancellable_do_tasks_branch -->
<g id="node7" class="node">
<title>cancellable_do_tasks_branch</title>
<polygon fill="orange" stroke="black" points="494.64,-180 344.64,-180 344.64,-144 494.64,-144 494.64,-180"/>
<text text-anchor="middle" x="419.64" y="-159.8" font-family="Times,serif" font-size="9.00">cancellable_do_tasks_branch</text>
</g>
<!-- do_work_trunk&#45;&gt;cancellable_do_tasks_branch -->
<g id="edge6" class="edge">
<title>do_work_trunk&#45;&gt;cancellable_do_tasks_branch</title>
<path fill="none" stroke="black" d="M285.18,-215.88C309.84,-206.18 340.86,-193.98 366.9,-183.74"/>
<polygon fill="black" stroke="black" points="368.21,-186.99 376.24,-180.07 365.65,-180.47 368.21,-186.99"/>
</g>
<!-- handle_cancel_task -->
<g id="node8" class="node">
<title>handle_cancel_task</title>
<ellipse fill="gray" stroke="black" cx="333.64" cy="-90" rx="61.4" ry="18"/>
<text text-anchor="middle" x="333.64" y="-87.8" font-family="Times,serif" font-size="9.00">handle_cancel_task</text>
</g>
<!-- cancellable_do_tasks_branch&#45;&gt;handle_cancel_task -->
<g id="edge7" class="edge">
<title>cancellable_do_tasks_branch&#45;&gt;handle_cancel_task</title>
<path fill="none" stroke="black" d="M398.38,-143.7C387.23,-134.62 373.43,-123.38 361.43,-113.62"/>
<polygon fill="black" stroke="black" points="363.44,-110.74 353.48,-107.14 359.02,-116.17 363.44,-110.74"/>
</g>
<!-- do_tasks_selector_branch -->
<g id="node9" class="node">
<title>do_tasks_selector_branch</title>
<polygon fill="cyan" stroke="black" points="598.87,-82.54 598.87,-97.46 544.26,-108 467.03,-108 412.41,-97.46 412.41,-82.54 467.03,-72 544.26,-72 598.87,-82.54"/>
<text text-anchor="middle" x="505.64" y="-87.8" font-family="Times,serif" font-size="9.00">Ⓜ do_tasks_selector_branch</text>
</g>
<!-- cancellable_do_tasks_branch&#45;&gt;do_tasks_selector_branch -->
<g id="edge8" class="edge">
<title>cancellable_do_tasks_branch&#45;&gt;do_tasks_selector_branch</title>
<path fill="none" stroke="black" d="M440.9,-143.7C451.73,-134.88 465.06,-124.03 476.8,-114.47"/>
<polygon fill="black" stroke="black" points="479.08,-117.13 484.63,-108.1 474.66,-111.7 479.08,-117.13"/>
</g>
<!-- print_behaviour -->
<g id="node10" class="node">
<title>print_behaviour</title>
<ellipse fill="gray" stroke="black" cx="439.64" cy="-18" rx="52.58" ry="18"/>
<text text-anchor="middle" x="439.64" y="-15.8" font-family="Times,serif" font-size="9.00">print_behaviour</text>
</g>
<!-- do_tasks_selector_branch&#45;&gt;print_behaviour -->
<g id="edge9" class="edge">
<title>do_tasks_selector_branch&#45;&gt;print_behaviour</title>
<path fill="none" stroke="black" d="M489.33,-71.7C481.21,-63.09 471.28,-52.55 462.43,-43.17"/>
<polygon fill="black" stroke="black" points="464.72,-40.5 455.31,-35.62 459.63,-45.3 464.72,-40.5"/>
</g>
<!-- handle_task_failure -->
<g id="node11" class="node">
<title>handle_task_failure</title>
<ellipse fill="gray" stroke="black" cx="571.64" cy="-18" rx="61.4" ry="18"/>
<text text-anchor="middle" x="571.64" y="-15.8" font-family="Times,serif" font-size="9.00">handle_task_failure</text>
</g>
<!-- do_tasks_selector_branch&#45;&gt;handle_task_failure -->
<g id="edge10" class="edge">
<title>do_tasks_selector_branch&#45;&gt;handle_task_failure</title>
<path fill="none" stroke="black" d="M521.96,-71.7C530.07,-63.09 540,-52.55 548.85,-43.17"/>
<polygon fill="black" stroke="black" points="551.65,-45.3 555.97,-35.62 546.56,-40.5 551.65,-45.3"/>
</g>
</g>
</svg>
